<svg xmlns="http://www.w3.org/2000/svg" version="1.1" xmlns:xlink="http://www.w3.org/1999/xlink" xmlns:svgjs="http://svgjs.com/svgjs" width="512" height="512" x="0" y="0" viewBox="0 0 512 512" style="enable-background:new 0 0 512 512" xml:space="preserve"><g><path d="M164.51 89.827 2.197 252.141a7.5 7.5 0 0 0 5.304 12.803 7.478 7.478 0 0 0 5.304-2.197l162.313-162.314c6.393-6.394 9.914-14.894 9.914-23.935V25.845a10.78 10.78 0 0 0-6.675-9.99 10.784 10.784 0 0 0-11.785 2.344L2.197 182.574a7.5 7.5 0 0 0 10.607 10.606L170.031 35.952v40.546c0 5.035-1.96 9.768-5.521 13.329zM341.948 355.952c0 4.97 2.967 9.411 7.559 11.312a12.211 12.211 0 0 0 13.344-2.654l107.754-107.753c6.393-6.393 9.913-14.893 9.913-23.935V107.774c0-4.97-2.967-9.41-7.558-11.312a12.206 12.206 0 0 0-13.345 2.654l-55.585 55.585V12.357a10.78 10.78 0 0 0-6.676-9.99 10.778 10.778 0 0 0-11.784 2.344l-53.861 53.861V43.766a10.78 10.78 0 0 0-6.676-9.99 10.778 10.778 0 0 0-11.784 2.344L69.016 280.353c-6.393 6.394-9.914 14.894-9.914 23.935v68.797c0 4.39 2.62 8.311 6.676 9.991a10.782 10.782 0 0 0 11.784-2.344l244.233-244.233c6.394-6.394 9.914-14.895 9.914-23.936V79.786l57.321-57.321v147.237l-37.168 37.168c-6.393 6.394-9.914 14.894-9.914 23.935v93.529L177.056 489.227V316.876c0-4.142-3.357-7.5-7.5-7.5s-7.5 3.358-7.5 7.5v182.458a10.78 10.78 0 0 0 6.676 9.99 10.782 10.782 0 0 0 11.784-2.344l161.433-161.432v10.404zm-267.846 7.026v-58.69a18.73 18.73 0 0 1 5.521-13.329L316.709 53.873v19.699L171.97 218.311c-6.393 6.394-9.914 14.894-9.914 23.935v32.778zm242.607-250.415c0 5.035-1.961 9.769-5.521 13.329L177.056 260.024v-17.778a18.73 18.73 0 0 1 5.521-13.329L316.709 94.786zm148.809 1.865v118.494c0 5.035-1.96 9.769-5.521 13.329L356.948 349.299v-18.751l37.168-37.168c6.393-6.394 9.914-14.894 9.914-23.935v-93.53zm-108.57 116.377a18.73 18.73 0 0 1 5.521-13.329l26.561-26.561v78.53a18.73 18.73 0 0 1-5.521 13.329l-26.561 26.561zM499.197 289.256l-69.14 69.14a7.5 7.5 0 0 0 5.304 12.803 7.478 7.478 0 0 0 5.304-2.197l69.14-69.14a7.5 7.5 0 0 0 0-10.606 7.502 7.502 0 0 0-10.608 0z" fill="#ffffff" data-original="#000000" opacity="1"></path><path d="m499.198 347.297-142.249 142.24v-29.012a18.73 18.73 0 0 1 5.521-13.329l53.407-53.407a7.5 7.5 0 0 0-10.607-10.606l-53.407 53.407c-6.393 6.394-9.914 14.894-9.914 23.935v39.119c0 4.389 2.62 8.31 6.675 9.99a10.782 10.782 0 0 0 11.784-2.344l149.396-149.385a7.5 7.5 0 0 0 .001-10.607 7.5 7.5 0 0 0-10.607-.001zM101.573 378.118 2.197 477.493a7.5 7.5 0 0 0 5.304 12.803 7.478 7.478 0 0 0 5.304-2.197l99.376-99.375c2.929-2.929 2.929-7.678 0-10.606s-7.678-2.93-10.608 0zM473.018 61.39a7.474 7.474 0 0 0 5.303-2.197l30.402-30.401a7.5 7.5 0 1 0-10.605-10.606l-30.402 30.401a7.498 7.498 0 0 0-.001 10.606 7.472 7.472 0 0 0 5.303 2.197z" fill="#ffffff" data-original="#000000" opacity="1"></path></g></svg>